<svg width="22" height="22" viewBox="0 0 22 22" fill="none" xmlns="http://www.w3.org/2000/svg">
<path d="M2.89765 3.85231C2.63405 3.58871 2.63405 3.16132 2.89765 2.89772C3.16126 2.63411 3.58865 2.63411 3.85225 2.89772L10.8 9.84542L17.7477 2.89772C18.0113 2.63411 18.4386 2.63411 18.7022 2.89772C18.9659 3.16132 18.9659 3.58871 18.7022 3.85231L11.7545 10.8L18.7022 17.7477C18.9659 18.0113 18.9659 18.4387 18.7022 18.7023C18.4386 18.9659 18.0113 18.9659 17.7477 18.7023L10.8 11.7546L3.85225 18.7023C3.58865 18.9659 3.16126 18.9659 2.89765 18.7023C2.63405 18.4387 2.63405 18.0113 2.89765 17.7477L9.84536 10.8L2.89765 3.85231Z" fill="black"/>
</svg>
