<svg width="100" height="100" viewBox="0 0 100 100" fill="none" xmlns="http://www.w3.org/2000/svg">
<path d="M78.1228 35.3564C75.8645 22.3007 64.5025 12.3501 50.8116 12.3501C45.3776 12.3501 40.2964 13.9732 35.9915 16.655C36.2033 17.0784 36.4855 17.4313 36.6973 17.8547C40.7904 15.2435 45.5893 13.691 50.8116 13.691C63.7262 13.691 74.4531 23.0064 76.6408 35.2859C77.1348 35.427 77.6288 35.3564 78.1228 35.3564Z" fill="white"/>
<path d="M76.9937 44.0368C76.9231 44.0368 76.8525 44.0368 76.782 44.0368C74.8765 56.6692 63.9379 66.3375 50.8116 66.3375C36.3444 66.3375 24.5589 54.552 24.5589 40.0848C24.5589 35.9211 25.5469 32.0397 27.3112 28.5111C27.2407 28.4405 27.1701 28.4405 27.0995 28.4405C27.0995 28.4405 27.0995 28.4405 27.0289 28.4405C27.0289 28.4405 27.0289 28.4405 26.9584 28.4405C26.9584 28.4405 26.9584 28.4405 26.8878 28.4405C26.8172 28.4405 26.8172 28.4405 26.7467 28.3699C26.6761 28.3699 26.6761 28.3699 26.6761 28.2994H26.6055C26.5349 28.2994 26.5349 28.2994 26.4644 28.2288C26.3938 28.1582 26.2527 28.1582 26.1821 28.0877C26.1115 28.0877 26.1115 28.0877 26.0409 28.0171H25.9704H25.8998C24.0649 31.6868 23.0769 35.78 23.0769 40.1554C23.1475 55.3283 35.5681 67.7489 50.8116 67.7489C64.7142 67.7489 76.2174 57.4455 78.1934 44.1074C77.77 44.1074 77.4171 44.0368 76.9937 44.0368Z" fill="white"/>
<path d="M58.8567 54.9048C58.7156 54.9048 58.645 54.9048 58.645 54.9754C58.151 56.528 57.3042 57.7277 56.2456 58.4334C55.1164 59.2097 53.705 59.5626 51.8701 59.5626H50.741C50.3881 59.5626 50.0353 59.492 49.8236 59.3508C49.6119 59.2097 49.4001 58.998 49.3296 58.7157C49.1884 58.4334 49.1884 58.01 49.1884 57.5865V49.612H52.0819C53.4933 49.612 54.5519 49.8942 55.2576 50.4588C55.9633 51.0234 56.3162 51.7997 56.3162 52.7171C56.3162 52.7877 56.3867 52.7877 56.5279 52.7877C56.669 52.7877 56.7396 52.7877 56.7396 52.7171C56.7396 52.0114 56.7396 51.4468 56.669 50.8822C56.669 50.3177 56.5984 49.7531 56.5984 49.1885C56.5984 48.6945 56.5984 48.2711 56.5984 47.8477C56.5984 47.4242 56.5984 46.7891 56.5984 46.0128C56.5984 45.9422 56.5279 45.9422 56.3867 45.9422C56.2456 45.9422 56.175 45.9422 56.175 46.0128C56.175 46.8597 55.8222 47.4948 55.1164 47.9888C54.4107 48.4828 53.3521 48.6945 51.9407 48.6945H49.0473V41.4256C49.0473 41.0022 49.1179 40.6494 49.259 40.3671C49.4001 40.0848 49.6118 39.8731 49.8941 39.7319C50.1764 39.5908 50.5999 39.5202 51.0233 39.5202H52.0819C53.5639 39.5202 54.693 39.8731 55.6104 40.5082C56.5279 41.1434 57.163 42.2019 57.5159 43.5428C57.5864 43.6134 57.657 43.6134 57.7276 43.6134C57.8687 43.6134 57.8687 43.5428 57.8687 43.5428L57.7982 38.8851C57.7982 38.6734 57.657 38.6028 57.4453 38.6028H43.331V39.0262C43.7544 39.0262 44.0367 39.0968 44.2484 39.1674C44.6013 39.3085 44.813 39.5202 44.9541 39.8731C45.0953 40.2259 45.0953 40.7199 45.0953 41.4256V57.7277C45.0953 58.4334 45.0247 58.9274 44.9541 59.2803C44.813 59.6331 44.6013 59.8448 44.2484 59.986C43.8955 60.1271 43.331 60.1271 42.6253 60.1271C42.5547 60.1271 42.5547 60.1977 42.5547 60.3388C42.5547 60.48 42.5547 60.5506 42.6253 60.5506H58.151C58.5039 60.5506 58.645 60.4094 58.645 60.0566C58.645 59.2803 58.645 58.3628 58.7862 57.4454C58.8567 56.528 58.9273 55.6811 58.9979 55.046C59.0684 54.9754 58.9979 54.9754 58.8567 54.9048Z" fill="white"/>
<path d="M64.7142 40.8609L58.0805 35.0035C57.5865 34.5095 57.163 34.1566 57.0219 33.8037C56.8102 33.4509 56.8102 33.098 56.9513 32.7452C57.0925 32.3923 57.4453 31.8983 57.8688 31.3337C57.9393 31.2632 57.8688 31.1926 57.7982 31.122C57.657 31.0514 57.5865 30.9809 57.5865 31.0514C57.163 31.4749 56.7396 32.0395 56.2456 32.6746C55.7516 33.3097 55.187 33.9449 54.6225 34.6506C54.0579 35.2857 53.4933 35.9209 52.9287 36.4855C52.3642 37.05 51.8702 37.6146 51.5173 38.038C51.5173 38.1086 51.5173 38.1086 51.6584 38.2498C51.7996 38.3203 51.8702 38.3909 51.8702 38.3203C52.3642 37.7558 52.7876 37.4029 53.1405 37.1912C53.4933 36.9795 53.8462 36.9795 54.199 37.1206C54.5519 37.2618 54.9753 37.544 55.5399 38.038L63.5851 45.0952C63.8673 43.7543 64.2908 42.2723 64.7142 40.8609Z" fill="white"/>
<path d="M79.8871 39.4496C79.1814 38.8144 78.4051 38.1087 77.6288 37.3324C76.8525 36.5561 76.1468 35.8504 75.5822 35.2858C75.5116 35.2153 75.4411 35.2858 75.3705 35.3564C75.2999 35.427 75.2294 35.4975 75.2999 35.5681C76.2879 37.0501 76.7114 38.6027 76.4997 40.367C76.3585 42.0607 75.6528 43.6838 74.3825 45.0953L73.5356 46.0127C73.1828 46.4361 72.8299 46.7184 72.5476 46.9301C72.2654 47.0713 71.9831 47.1419 71.7008 47.0007C71.4185 46.8596 71.0656 46.6479 70.5716 46.2244L65.2082 41.4961C64.7848 42.9076 64.3613 44.319 63.9379 45.7304L68.0311 49.3296C68.5251 49.8236 68.9485 50.1764 69.0896 50.5293C69.3013 50.8822 69.3013 51.235 69.1602 51.5879C69.0191 51.9407 68.6662 52.4347 68.1722 52.9993C68.1722 53.0699 68.1722 53.0699 68.3133 53.211C68.4545 53.2816 68.5251 53.3522 68.5251 53.2816L79.9577 40.2258C80.1694 39.9436 80.1694 39.7318 79.8871 39.4496Z" fill="#8F1B1E"/>
<path d="M33.6627 19.5483C35.4975 18.4898 37.1207 18.0663 38.5321 18.2075C39.873 18.3486 40.9316 18.9838 41.5667 20.1835C42.2018 21.3832 42.4841 22.5829 42.343 23.9238C42.2018 25.1941 41.7078 26.3938 40.9316 27.4524C40.1553 28.5109 39.2378 29.3578 38.0381 29.9929C37.7558 30.1341 37.4735 30.2752 37.1913 30.4869C36.909 30.6281 36.6267 30.7692 36.3444 30.9104L40.0141 37.6147C40.367 38.1793 40.6493 38.6027 40.9316 38.885C41.2138 39.1673 41.4961 39.2378 41.849 39.1673C42.2018 39.0967 42.6958 38.885 43.331 38.5321C43.4016 38.5321 43.4016 38.5321 43.4721 38.6733C43.5427 38.8144 43.5427 38.885 43.5427 38.885C43.0487 39.1673 42.4136 39.5201 41.7784 39.8024C41.1433 40.1553 40.4376 40.5081 39.6613 40.9315C38.9555 41.355 38.2498 41.7078 37.6147 42.1313C36.9795 42.4841 36.415 42.837 35.8504 43.1193C35.7798 43.1193 35.7093 43.1193 35.6387 42.9781C35.5681 42.837 35.5681 42.7664 35.6387 42.7664C36.2738 42.4135 36.6973 42.1313 36.9795 41.849C37.2618 41.5667 37.3324 41.2844 37.2618 40.9315C37.1913 40.5787 37.0501 40.0847 36.6973 39.5201L28.9344 25.4764C28.5815 24.9118 28.2992 24.4884 28.0875 24.2766C27.8052 24.0649 27.5229 23.9238 27.1701 23.9944C26.8172 24.0649 26.3232 24.2766 25.6881 24.6295C25.6175 24.6295 25.6175 24.6295 25.5469 24.4884C25.4764 24.3472 25.4058 24.2766 25.4058 24.2061C25.8998 23.9238 26.5349 23.6415 27.1701 23.2886C27.8052 22.9358 28.5109 22.5829 29.2872 22.2301C29.9224 21.8772 30.6987 21.4538 31.4044 20.9598C32.2512 20.3952 32.957 19.9718 33.6627 19.5483ZM38.7438 23.2886C38.1087 22.0889 37.4735 21.2421 36.909 20.7481C36.3444 20.2541 35.7798 20.0423 35.2153 20.0423C34.6507 20.0423 34.0861 20.1835 33.5921 20.4658C32.8158 20.8892 32.3218 21.3832 32.1101 21.8772C31.8984 22.3712 32.0395 22.9358 32.463 23.6415L35.9915 30.0635C36.2738 29.9224 36.6267 29.7812 36.9795 29.6401C37.3324 29.4989 37.6147 29.3578 37.8264 29.2167C39.0261 28.5815 39.6613 27.7347 39.8024 26.8172C39.873 25.9704 39.5201 24.7706 38.7438 23.2886ZM50.6704 35.0035C50.3882 35.1447 49.6824 35.0741 48.5533 34.6507C47.4241 34.2978 46.0127 33.5921 44.319 32.6747C42.5547 31.7572 40.5787 30.6281 38.2498 29.2872L40.5787 26.8878C43.5427 28.4404 46.0127 29.6401 47.9887 30.4869C49.9647 31.3338 51.5173 31.8278 52.7876 31.9689C54.0579 32.1101 55.0459 31.969 55.8927 31.5455C55.9633 31.5455 55.9633 31.5455 56.0339 31.6867C56.1045 31.8278 56.1045 31.8984 56.1045 31.8984C54.693 32.6747 53.5639 33.3098 52.6464 33.8038C51.729 34.439 51.0939 34.7918 50.6704 35.0035Z" fill="white"/>
<path d="M42.9076 76.0762C42.7664 76.0762 42.6253 76.0056 42.4841 75.9351C42.343 75.7939 42.343 75.6528 42.343 75.4411C42.343 75.2294 42.4136 74.9471 42.4841 74.6648C42.5547 74.3825 42.6958 74.1002 42.837 73.8179C42.9781 73.5356 43.1193 73.3239 43.2604 73.1122C43.4016 72.9005 43.5427 72.7594 43.6133 72.7594C43.825 72.6888 43.9661 72.6182 44.1073 72.5476C44.2484 72.4771 44.3896 72.4065 44.5307 72.4065C44.6718 72.4065 44.7424 72.4065 44.8836 72.4771C44.9541 72.5476 45.0247 72.6888 45.0247 72.8299V72.9005V72.9711C45.0247 73.1122 44.9541 73.1828 44.8836 73.2534C44.813 73.3239 44.7424 73.3239 44.7424 73.3239C44.6719 73.3239 44.6013 73.2534 44.6013 73.1828C44.6013 73.1122 44.6013 73.0416 44.6719 72.9711C44.6719 72.9005 44.7424 72.8299 44.7424 72.7594C44.7424 72.6888 44.6719 72.6182 44.6013 72.6182C44.5307 72.6182 44.4601 72.6182 44.3896 72.6888C44.319 72.7594 44.1778 72.8299 44.1073 72.9005C44.0367 72.9711 43.9661 73.0416 43.8956 73.0416C43.825 73.1122 43.7544 73.1828 43.6838 73.3945C43.6133 73.6062 43.4721 73.8179 43.4016 74.0296C43.331 74.3119 43.1898 74.5236 43.1193 74.8059C43.0487 75.0882 42.9781 75.2999 42.9781 75.4411C42.9781 75.6528 43.0487 75.7939 43.2604 75.7939C43.4721 75.7939 43.6838 75.7234 43.825 75.6528C43.9661 75.5116 44.1778 75.4411 44.319 75.2294C44.4601 75.0882 44.6013 74.9471 44.6719 74.8059C44.7424 74.6648 44.813 74.6648 44.813 74.5942L44.8836 74.6648C44.8836 74.7354 44.813 74.8059 44.7424 74.9471C44.6719 75.0882 44.5307 75.2294 44.3896 75.3705C44.2484 75.5116 44.0367 75.6528 43.825 75.7939C43.6133 75.9351 43.1193 76.0762 42.9076 76.0762Z" fill="white"/>
<path d="M44.813 76.0762C44.6719 76.0762 44.6013 75.9351 44.6013 75.7234C44.6013 75.5117 44.6719 75.2999 44.7424 75.0177C44.813 74.7354 44.8836 74.4531 45.0247 74.1708C45.1659 73.8885 45.2364 73.6062 45.3776 73.3239C45.5187 73.0417 45.6599 72.8299 45.801 72.6888C45.9421 72.5477 46.0833 72.4771 46.2244 72.4771L46.3656 72.4065C46.3656 72.3359 46.4362 72.3359 46.5067 72.3359C46.5773 72.3359 46.5773 72.3359 46.6479 72.3359C46.789 72.3359 46.9301 72.3359 47.0713 72.4065C47.2124 72.4771 47.283 72.4771 47.3536 72.4771C47.4242 72.4771 47.4242 72.4771 47.4242 72.4065C47.4242 72.3359 47.4947 72.3359 47.5653 72.3359C47.6359 72.3359 47.7064 72.3359 47.777 72.4065C47.8476 72.4771 47.8476 72.4771 47.8476 72.5477C47.8476 72.6182 47.8476 72.7594 47.777 72.8299C47.7064 72.9711 47.7064 73.0417 47.6359 73.1122L47.5653 73.1828C47.4947 73.1828 47.4947 73.2534 47.4947 73.2534C47.4242 73.5357 47.283 73.8885 47.2124 74.1708C47.1419 74.4531 47.0713 74.7354 47.0007 74.9471C46.9302 75.1588 46.9302 75.2999 46.9302 75.3705C46.9302 75.5117 47.0007 75.5822 47.0713 75.5822C47.1419 75.5822 47.2124 75.5822 47.3536 75.5117C47.4242 75.4411 47.5653 75.3705 47.6359 75.2999C47.7064 75.2294 47.777 75.1588 47.8476 75.0882C47.9182 75.0177 47.9182 75.0177 47.9182 75.0177C47.9182 75.0177 47.9182 75.0177 47.9182 75.0882C47.9182 75.0882 47.9182 75.1588 47.9182 75.2294C47.9182 75.2999 47.8476 75.2999 47.8476 75.3705C47.777 75.4411 47.7064 75.5117 47.5653 75.6528C47.4242 75.7939 47.283 75.8645 47.1419 76.0057C47.0007 76.0762 46.8596 76.1468 46.7184 76.1468C46.5773 76.1468 46.5067 76.0762 46.5067 75.9351C46.5067 75.7939 46.5067 75.6528 46.5773 75.5117C46.6479 75.2999 46.6479 75.1588 46.7184 74.9471C46.789 74.7354 46.789 74.5942 46.8596 74.4531C46.789 74.5942 46.6479 74.7354 46.5067 74.9471C46.3656 75.1588 46.1539 75.3705 46.0127 75.5822C45.801 75.7939 45.6599 75.9351 45.4481 76.0762C45.0953 76.0057 44.9541 76.0762 44.813 76.0762ZM45.1659 75.5822C45.2364 75.5822 45.307 75.5117 45.4481 75.4411C45.5893 75.3705 45.6599 75.2294 45.801 75.0882C45.9421 74.9471 46.0127 74.8059 46.1539 74.6648C46.295 74.5237 46.3656 74.3825 46.4362 74.3119C46.5067 74.1708 46.5773 74.1708 46.5773 74.1002C46.6479 73.9591 46.789 73.7474 46.8596 73.5357C46.9302 73.3239 47.0713 73.1828 47.1419 72.9711C47.2124 72.7594 47.2124 72.6888 47.2124 72.6182C47.2124 72.5477 47.2124 72.5477 47.1419 72.5477C47.0713 72.5477 47.0007 72.5477 46.9302 72.5477C46.8596 72.5477 46.789 72.5477 46.7184 72.5477C46.6479 72.5477 46.5067 72.5477 46.4362 72.6182C46.3656 72.6182 46.295 72.6888 46.1539 72.8299C46.0127 72.9711 45.9421 73.1828 45.801 73.3945C45.6599 73.6062 45.5893 73.8179 45.4481 74.1002C45.307 74.3825 45.2364 74.5942 45.1659 74.8059C45.0953 75.0177 45.0247 75.2294 45.0247 75.3705C45.0247 75.5117 45.0953 75.5822 45.1659 75.5822Z" fill="white"/>
<path d="M48.0593 76.2174C47.9887 76.2174 47.9887 76.2174 47.9181 76.1468C47.8476 76.0763 47.8476 76.0763 47.8476 76.0057C47.8476 75.9351 47.9181 75.8645 47.9887 75.8645C48.0593 75.8645 48.2004 75.8645 48.3416 75.794C48.4827 75.794 48.6944 75.7234 48.8356 75.6528C48.9767 75.5823 49.1884 75.5117 49.259 75.4411C49.4001 75.3705 49.4707 75.3 49.4707 75.1588C49.4707 75.0883 49.4001 75.0177 49.3296 74.8765C49.259 74.806 49.1179 74.6648 48.9767 74.5943C48.8356 74.5237 48.6944 74.3825 48.5533 74.312C48.4121 74.2414 48.271 74.1003 48.2004 74.0297C48.1299 73.9591 48.0593 73.818 48.0593 73.6768C48.0593 73.6063 48.0593 73.6063 48.0593 73.5357C48.0593 73.4651 48.1298 73.4651 48.1298 73.3945C48.3416 73.1123 48.5533 72.9711 48.765 72.7594C48.9767 72.6183 49.1884 72.4771 49.4001 72.4065C49.6119 72.336 49.753 72.2654 49.8941 72.1948C49.8941 72.1948 49.9647 72.1948 50.0353 72.1948C50.1059 72.1948 50.1059 72.1948 50.1764 72.1948C50.247 72.1948 50.3176 72.1948 50.3881 72.2654C50.4587 72.336 50.5293 72.4065 50.5293 72.5477C50.5293 72.6183 50.5293 72.6888 50.4587 72.83C50.3881 72.9005 50.3881 73.0417 50.3176 73.1123C50.247 73.1828 50.1764 73.324 50.1059 73.3945C50.0353 73.4651 49.9647 73.4651 49.9647 73.4651C49.9647 73.4651 49.8941 73.4651 49.8941 73.3945C49.8941 73.324 49.8941 73.2534 49.9647 73.1828C50.0353 73.1123 50.0353 72.9711 50.1059 72.9005C50.1764 72.83 50.1764 72.7594 50.1764 72.6888C50.1764 72.6183 50.1059 72.5477 50.0353 72.5477C49.9647 72.5477 49.9647 72.5477 49.8941 72.5477C49.8236 72.5477 49.753 72.5477 49.753 72.5477C49.6824 72.5477 49.6119 72.5477 49.5413 72.6183C49.4001 72.6888 49.3296 72.7594 49.1884 72.83C49.0473 72.9005 48.9767 72.9711 48.8356 73.1123C48.765 73.1828 48.6944 73.324 48.6944 73.4651C48.6944 73.5357 48.6944 73.6063 48.765 73.6768C48.8356 73.818 48.9767 73.9591 49.1179 74.0297C49.259 74.1003 49.4001 74.1708 49.5413 74.2414C49.6824 74.312 49.8236 74.3825 49.8941 74.4531C49.9647 74.5237 50.0353 74.6648 50.0353 74.806C50.0353 74.9471 49.9647 75.0883 49.8236 75.2294C49.6824 75.3705 49.5413 75.5117 49.3296 75.6528C49.1179 75.794 48.9061 75.8645 48.765 75.9351C48.3416 76.1468 48.2004 76.2174 48.0593 76.2174Z" fill="white"/>
<path d="M51.8702 76.6408C51.7996 76.6408 51.729 76.5703 51.729 76.4997C51.729 76.4291 51.7996 76.3585 51.8702 76.288C51.9407 76.2174 52.0113 76.1468 52.0819 76.0057C52.0819 75.9351 52.1524 75.794 52.223 75.6528C52.2936 75.4411 52.3642 75.2294 52.4347 74.9471C52.5053 74.6648 52.5759 74.4531 52.6464 74.2414C52.717 74.0297 52.7876 73.818 52.7876 73.6768C52.717 73.818 52.5759 73.9591 52.4347 74.1003C52.2936 74.312 52.1524 74.5237 51.9407 74.7354C51.729 74.9471 51.5879 75.1588 51.3762 75.3705C51.1644 75.5823 51.0233 75.7234 50.8116 75.8645C50.6704 76.0057 50.5293 76.0763 50.3882 76.0763C50.3176 76.0763 50.247 76.0057 50.247 75.9351C50.247 75.8645 50.3176 75.7234 50.3882 75.5117C50.4587 75.4411 50.4587 75.3 50.5999 75.0883C50.6704 74.9471 50.741 74.7354 50.8822 74.5237C50.9527 74.312 51.0233 74.1003 51.0939 73.9591C51.1644 73.7474 51.1644 73.6768 51.1644 73.5357C51.1644 73.4651 51.1644 73.4651 51.1644 73.4651V73.3945C51.1644 73.3945 51.1644 73.3945 51.1644 73.324V73.2534C51.235 72.9711 51.3056 72.7594 51.3762 72.6183C51.4467 72.4771 51.5173 72.336 51.5879 72.336C51.6584 72.2654 51.7996 72.2654 51.9407 72.2654C52.0113 72.2654 52.0819 72.2654 52.0819 72.336C52.0819 72.4065 52.0113 72.5477 51.9407 72.7594C51.8702 72.9711 51.729 73.1828 51.6584 73.4651C51.5173 73.7474 51.4467 74.0297 51.3056 74.312C51.1644 74.5943 51.0939 74.806 51.0233 75.0177C50.9527 75.2294 50.8822 75.3705 50.8822 75.3705V75.4411C50.8822 75.4411 50.9527 75.4411 50.9527 75.3705C51.0233 75.3705 51.0233 75.3 51.0939 75.2294C51.4467 74.9471 51.7996 74.5943 52.0819 74.2414C52.3642 73.8885 52.5759 73.5357 52.7876 73.1123C52.7876 73.0417 52.7876 72.9005 52.8582 72.7594C52.9287 72.6183 52.9993 72.4771 53.0699 72.336C53.1404 72.1948 53.2816 72.1948 53.4933 72.1948C53.5639 72.1948 53.6344 72.1948 53.6344 72.2654C53.6344 72.336 53.5639 72.5477 53.4227 72.83C53.3522 73.1123 53.211 73.3945 53.1405 73.6768C53.0699 73.818 52.9993 74.0297 52.9993 74.2414C52.9993 74.4531 52.8582 74.6648 52.7876 74.8765C52.717 75.0883 52.6464 75.3 52.6464 75.4411C52.5759 75.5823 52.5759 75.7234 52.5759 75.794C52.6464 75.794 52.717 75.7234 52.7876 75.6528C52.8582 75.5823 52.9993 75.5117 53.0699 75.4411C53.211 75.3705 53.2816 75.3 53.3522 75.3C53.3522 75.3 53.3522 75.3 53.4227 75.3C53.4227 75.3 53.4227 75.3 53.4227 75.3705C53.4227 75.4411 53.3522 75.4411 53.2816 75.5117C53.211 75.5823 53.0699 75.6528 52.9287 75.7234C52.7876 75.794 52.717 75.8645 52.5759 75.9351C52.4347 76.0057 52.3642 76.0763 52.3642 76.0763C52.2936 76.1468 52.223 76.2174 52.1524 76.288C52.0819 76.3585 52.0113 76.4291 51.9407 76.4997C52.0113 76.6408 51.9407 76.6408 51.8702 76.6408Z" fill="white"/>
<path d="M53.7756 76.0762C53.6344 76.0762 53.5639 75.9351 53.5639 75.7234C53.5639 75.5117 53.6344 75.2999 53.705 75.0177C53.7756 74.7354 53.8462 74.4531 53.9873 74.1708C54.1284 73.8885 54.199 73.6062 54.3402 73.3239C54.4813 73.0417 54.6224 72.8299 54.7636 72.6888C54.9047 72.5477 55.0459 72.4771 55.187 72.4771L55.3282 72.4065C55.3282 72.3359 55.3987 72.3359 55.4693 72.3359C55.5399 72.3359 55.5399 72.3359 55.6105 72.3359C55.7516 72.3359 55.8927 72.3359 56.0339 72.4065C56.175 72.4771 56.2456 72.4771 56.3162 72.4771C56.3867 72.4771 56.3867 72.4771 56.3867 72.4065C56.3867 72.3359 56.4573 72.3359 56.5279 72.3359C56.5985 72.3359 56.669 72.3359 56.7396 72.4065C56.8102 72.4771 56.8102 72.4771 56.8102 72.5477C56.8102 72.6182 56.8102 72.7594 56.7396 72.8299C56.669 72.9711 56.669 73.0417 56.5985 73.1122L56.5279 73.1828C56.4573 73.1828 56.4573 73.2534 56.4573 73.2534C56.3867 73.5357 56.2456 73.8885 56.175 74.1708C56.1044 74.4531 56.0339 74.7354 55.9633 74.9471C55.8927 75.1588 55.8927 75.2999 55.8927 75.3705C55.8927 75.5117 55.9633 75.5822 56.0339 75.5822C56.1045 75.5822 56.175 75.5822 56.3162 75.5117C56.3867 75.4411 56.5279 75.3705 56.5985 75.2999C56.669 75.2294 56.7396 75.1588 56.8102 75.0882C56.8807 75.0177 56.8807 75.0177 56.8807 75.0177C56.8807 75.0177 56.8807 75.0177 56.8807 75.0882C56.8807 75.0882 56.8807 75.1588 56.8807 75.2294C56.8807 75.2999 56.8102 75.2999 56.8102 75.3705C56.7396 75.4411 56.669 75.5117 56.5279 75.6528C56.3867 75.7939 56.2456 75.8645 56.1045 76.0057C55.9633 76.0762 55.8222 76.1468 55.681 76.1468C55.5399 76.1468 55.4693 76.0762 55.4693 75.9351C55.4693 75.7939 55.4693 75.6528 55.5399 75.5117C55.6104 75.2999 55.6105 75.1588 55.681 74.9471C55.7516 74.7354 55.7516 74.5942 55.8222 74.4531C55.7516 74.5942 55.6104 74.7354 55.4693 74.9471C55.3282 75.1588 55.1164 75.3705 54.9753 75.5822C54.7636 75.7939 54.6224 75.9351 54.4107 76.0762C54.0579 76.0057 53.9167 76.0762 53.7756 76.0762ZM54.0579 75.5822C54.1284 75.5822 54.199 75.5117 54.3402 75.4411C54.4813 75.3705 54.5519 75.2294 54.693 75.0882C54.8342 74.9471 54.9047 74.8059 55.0459 74.6648C55.187 74.5237 55.2576 74.3825 55.3282 74.3119C55.3987 74.1708 55.4693 74.1708 55.4693 74.1002C55.5399 73.9591 55.681 73.7474 55.7516 73.5357C55.8222 73.3239 55.9633 73.1828 56.0339 72.9711C56.1045 72.7594 56.1045 72.6888 56.1045 72.6182C56.1045 72.5477 56.1045 72.5477 56.0339 72.5477C55.9633 72.5477 55.8927 72.5477 55.8222 72.5477C55.7516 72.5477 55.681 72.5477 55.6105 72.5477C55.5399 72.5477 55.3987 72.5477 55.3282 72.6182C55.2576 72.6182 55.187 72.6888 55.0459 72.8299C54.9047 72.9711 54.8342 73.1828 54.693 73.3945C54.5519 73.6062 54.4813 73.8179 54.3402 74.1002C54.199 74.3825 54.1284 74.5942 54.0579 74.8059C53.9873 75.0177 53.9167 75.2294 53.9167 75.3705C53.9873 75.5117 53.9873 75.5822 54.0579 75.5822Z" fill="white"/>
<path d="M57.0219 76.0763C56.8808 76.0763 56.8102 76.0057 56.8102 75.9351C56.8102 75.8646 56.8102 75.794 56.8808 75.7234C57.0925 75.2294 57.2336 74.7354 57.3748 74.2414C57.5159 73.7474 57.657 73.324 57.7982 72.83C57.9393 72.336 58.0805 71.842 58.2216 71.348C58.2216 71.2774 58.2216 71.2774 58.2216 71.2068V71.1363V71.0657V70.9951C58.2216 70.9951 58.2216 70.9246 58.2216 70.854C58.3628 70.4306 58.5039 70.1483 58.5745 70.0071C58.7156 69.866 58.8568 69.7954 59.0685 69.7954C59.139 69.7954 59.2096 69.7954 59.2096 69.866C59.0685 70.2188 58.8568 70.6423 58.645 71.1363C58.4333 71.6303 58.2922 72.0537 58.0805 72.5477C57.9393 73.0417 57.7276 73.5357 57.5865 74.0297C57.4453 74.5237 57.3042 74.9471 57.2336 75.3706V75.4411C57.2336 75.5117 57.2336 75.5823 57.3042 75.5823C57.3748 75.5823 57.4453 75.5823 57.5159 75.5117C57.5865 75.4411 57.657 75.4411 57.7982 75.3706C57.8688 75.3 57.9393 75.3 58.0099 75.3C58.0805 75.3 58.0805 75.3 58.0805 75.3706C58.0805 75.4411 58.0099 75.4411 57.9393 75.5823C57.8688 75.7234 57.7276 75.7234 57.5865 75.8646C57.4453 75.9351 57.3042 76.0057 57.163 76.0763C57.0219 76.1469 57.0925 76.0763 57.0219 76.0763Z" fill="white"/>
</svg>
