<svg width="90" height="90" viewBox="0 0 90 90" fill="none" xmlns="http://www.w3.org/2000/svg">
<path d="M70.3105 31.8207C68.278 20.0705 58.0522 11.115 45.7304 11.115C40.8398 11.115 36.2667 12.5758 32.3923 14.9894C32.5829 15.3705 32.8369 15.688 33.0275 16.0691C36.7113 13.7191 41.0303 12.3218 45.7304 12.3218C57.3535 12.3218 67.0077 20.7057 68.9767 31.7572C69.4213 31.8842 69.8659 31.8207 70.3105 31.8207Z" fill="black"/>
<path d="M69.2943 39.633C69.2308 39.633 69.1673 39.633 69.1038 39.633C67.3889 51.0021 57.5442 59.7036 45.7305 59.7036C32.71 59.7036 22.1031 49.0966 22.1031 36.0762C22.1031 32.3288 22.9923 28.8355 24.5802 25.6598C24.5166 25.5963 24.4531 25.5963 24.3896 25.5963C24.3896 25.5963 24.3896 25.5963 24.3261 25.5963C24.3261 25.5963 24.3261 25.5963 24.2626 25.5963C24.2626 25.5963 24.2626 25.5963 24.1991 25.5963C24.1356 25.5963 24.1356 25.5963 24.072 25.5328C24.0085 25.5328 24.0085 25.5328 24.0085 25.4693H23.945C23.8815 25.4693 23.8815 25.4693 23.818 25.4058C23.7545 25.3422 23.6274 25.3422 23.5639 25.2787C23.5004 25.2787 23.5004 25.2787 23.4369 25.2152H23.3734H23.3099C21.6585 28.518 20.7693 32.2018 20.7693 36.1397C20.8328 49.7953 32.0113 60.9739 45.7305 60.9739C58.2428 60.9739 68.5957 51.7007 70.3741 39.6965C69.993 39.6965 69.6754 39.633 69.2943 39.633Z" fill="black"/>
<path d="M52.9712 49.4143C52.8441 49.4143 52.7806 49.4143 52.7806 49.4778C52.336 50.8751 51.5738 51.9549 50.6211 52.59C49.6049 53.2887 48.3346 53.6062 46.6832 53.6062H45.667C45.3494 53.6062 45.0318 53.5427 44.8413 53.4157C44.6508 53.2887 44.4602 53.0981 44.3967 52.8441C44.2697 52.59 44.2697 52.2089 44.2697 51.8278V44.6507H46.8738C48.1441 44.6507 49.0968 44.9047 49.7319 45.4129C50.3671 45.921 50.6846 46.6196 50.6846 47.4453C50.6846 47.5088 50.7482 47.5088 50.8752 47.5088C51.0022 47.5088 51.0657 47.5088 51.0657 47.4453C51.0657 46.8102 51.0657 46.3021 51.0022 45.7939C51.0022 45.2858 50.9387 44.7777 50.9387 44.2696C50.9387 43.825 50.9387 43.4439 50.9387 43.0628C50.9387 42.6817 50.9387 42.1101 50.9387 41.4114C50.9387 41.3479 50.8752 41.3479 50.7482 41.3479C50.6211 41.3479 50.5576 41.3479 50.5576 41.4114C50.5576 42.1736 50.24 42.7453 49.6049 43.1899C48.9697 43.6345 48.017 43.825 46.7467 43.825H44.1426V37.283C44.1426 36.9019 44.2062 36.5844 44.3332 36.3303C44.4602 36.0762 44.6508 35.8857 44.9048 35.7587C45.1589 35.6316 45.54 35.5681 45.9211 35.5681H46.8738C48.2076 35.5681 49.2238 35.8857 50.0495 36.4573C50.8752 37.029 51.4468 37.9817 51.7644 39.1884C51.8279 39.252 51.8914 39.252 51.9549 39.252C52.082 39.252 52.082 39.1884 52.082 39.1884L52.0184 34.9965C52.0184 34.8059 51.8914 34.7424 51.7009 34.7424H38.998V35.1235C39.3791 35.1235 39.6331 35.187 39.8237 35.2505C40.1412 35.3776 40.3318 35.5681 40.4588 35.8857C40.5858 36.2033 40.5858 36.6479 40.5858 37.283V51.9549C40.5858 52.59 40.5223 53.0346 40.4588 53.3522C40.3318 53.6697 40.1412 53.8603 39.8237 53.9873C39.5061 54.1143 38.998 54.1143 38.3628 54.1143C38.2993 54.1143 38.2993 54.1779 38.2993 54.3049C38.2993 54.4319 38.2993 54.4954 38.3628 54.4954H52.336C52.6536 54.4954 52.7806 54.3684 52.7806 54.0508C52.7806 53.3522 52.7806 52.5265 52.9076 51.7008C52.9712 50.8751 53.0347 50.1129 53.0982 49.5413C53.1617 49.4778 53.0982 49.4778 52.9712 49.4143Z" fill="black"/>
<path d="M58.2427 36.7749L52.2723 31.5032C51.8277 31.0586 51.4466 30.741 51.3196 30.4234C51.1291 30.1058 51.1291 29.7883 51.2561 29.4707C51.3831 29.1531 51.7007 28.7085 52.0818 28.2004C52.1453 28.1369 52.0818 28.0734 52.0183 28.0099C51.8912 27.9464 51.8277 27.8828 51.8277 27.9464C51.4466 28.3274 51.0655 28.8356 50.6209 29.4072C50.1763 29.9788 49.6682 30.5504 49.1601 31.1856C48.652 31.7572 48.1439 32.3289 47.6358 32.837C47.1277 33.3451 46.6831 33.8532 46.3655 34.2343C46.3655 34.2978 46.3655 34.2978 46.4925 34.4248C46.6195 34.4883 46.6831 34.5519 46.6831 34.4883C47.1277 33.9802 47.5087 33.6627 47.8263 33.4721C48.1439 33.2816 48.4615 33.2816 48.779 33.4086C49.0966 33.5356 49.4777 33.7897 49.9858 34.2343L57.2265 40.5857C57.4805 39.379 57.8616 38.0452 58.2427 36.7749Z" fill="black"/>
<path d="M71.8982 35.5046C71.2631 34.933 70.5644 34.2978 69.8658 33.5992C69.1671 32.9005 68.5319 32.2654 68.0238 31.7573C67.9603 31.6938 67.8968 31.7573 67.8333 31.8208C67.7698 31.8843 67.7063 31.9478 67.7698 32.0113C68.659 33.3451 69.0401 34.7424 68.8495 36.3303C68.7225 37.8547 68.0873 39.3155 66.9441 40.5858L66.1819 41.4115C65.8643 41.7925 65.5468 42.0466 65.2927 42.2372C65.0387 42.3642 64.7846 42.4277 64.5305 42.3007C64.2765 42.1736 63.9589 41.9831 63.5143 41.602L58.6872 37.3465C58.3061 38.6168 57.925 39.8871 57.5439 41.1574L61.2278 44.3966C61.6724 44.8412 62.0535 45.1588 62.1805 45.4764C62.371 45.794 62.371 46.1115 62.244 46.4291C62.117 46.7467 61.7994 47.1913 61.3548 47.6994C61.3548 47.7629 61.3548 47.7629 61.4818 47.8899C61.6089 47.9535 61.6724 48.017 61.6724 47.9535L71.9617 36.2033C72.1523 35.9492 72.1523 35.7587 71.8982 35.5046Z" fill="#8F1B1E"/>
<path d="M30.2964 17.5935C31.9478 16.6408 33.4086 16.2597 34.6789 16.3867C35.8857 16.5138 36.8384 17.0854 37.41 18.1651C37.9817 19.2449 38.2357 20.3246 38.1087 21.5314C37.9817 22.6747 37.5371 23.7544 36.8384 24.7071C36.1398 25.6598 35.3141 26.422 34.2343 26.9937C33.9803 27.1207 33.7262 27.2477 33.4722 27.4383C33.2181 27.5653 32.964 27.6923 32.71 27.8193L36.0127 33.8532C36.3303 34.3613 36.5844 34.7424 36.8384 34.9965C37.0925 35.2505 37.3465 35.314 37.6641 35.2505C37.9817 35.187 38.4263 34.9965 38.9979 34.6789C39.0614 34.6789 39.0614 34.6789 39.1249 34.8059C39.1885 34.933 39.1885 34.9965 39.1885 34.9965C38.7439 35.2505 38.1722 35.5681 37.6006 35.8222C37.029 36.1397 36.3938 36.4573 35.6952 36.8384C35.06 37.2195 34.4249 37.5371 33.8532 37.9181C33.2816 38.2357 32.7735 38.5533 32.2654 38.8073C32.2019 38.8073 32.1383 38.8073 32.0748 38.6803C32.0113 38.5533 32.0113 38.4898 32.0748 38.4898C32.6465 38.1722 33.0276 37.9181 33.2816 37.6641C33.5357 37.41 33.5992 37.156 33.5357 36.8384C33.4722 36.5208 33.3451 36.0762 33.0275 35.5681L26.041 22.9287C25.7234 22.4206 25.4693 22.0395 25.2788 21.849C25.0247 21.6584 24.7707 21.5314 24.4531 21.5949C24.1355 21.6584 23.6909 21.849 23.1193 22.1666C23.0558 22.1666 23.0558 22.1666 22.9923 22.0395C22.9287 21.9125 22.8652 21.849 22.8652 21.7855C23.3098 21.5314 23.8815 21.2773 24.4531 20.9598C25.0247 20.6422 25.6599 20.3246 26.3585 20.0071C26.9302 19.6895 27.6288 19.3084 28.264 18.8638C29.0261 18.3557 29.6613 17.9746 30.2964 17.5935ZM34.8695 20.9598C34.2978 19.88 33.7262 19.1179 33.2181 18.6733C32.71 18.2287 32.2019 18.0381 31.6937 18.0381C31.1856 18.0381 30.6775 18.1651 30.2329 18.4192C29.5343 18.8003 29.0897 19.2449 28.8991 19.6895C28.7086 20.1341 28.8356 20.6422 29.2167 21.2773L32.3924 27.0572C32.6465 26.9301 32.964 26.8031 33.2816 26.6761C33.5992 26.549 33.8532 26.422 34.0438 26.295C35.1235 25.7234 35.6952 24.9612 35.8222 24.1355C35.8857 23.3733 35.5681 22.2936 34.8695 20.9598ZM45.6034 31.5032C45.3494 31.6302 44.7142 31.5667 43.698 31.1856C42.6818 30.868 41.4115 30.2329 39.8871 29.4072C38.2993 28.5815 36.5208 27.5653 34.4249 26.3585L36.5208 24.199C39.1885 25.5963 41.4115 26.6761 43.1899 27.4383C44.9683 28.2004 46.3656 28.645 47.5089 28.7721C48.6521 28.8991 49.5413 28.7721 50.3035 28.391C50.367 28.391 50.367 28.391 50.4305 28.518C50.494 28.645 50.494 28.7085 50.494 28.7085C49.2237 29.4072 48.2075 29.9788 47.3818 30.4234C46.5561 30.9951 45.9845 31.3126 45.6034 31.5032Z" fill="black"/>
<path d="M38.6168 68.4685C38.4897 68.4685 38.3627 68.405 38.2357 68.3415C38.1086 68.2145 38.1086 68.0874 38.1086 67.8969C38.1086 67.7064 38.1722 67.4523 38.2357 67.1982C38.2992 66.9442 38.4262 66.6901 38.5532 66.4361C38.6803 66.182 38.8073 65.9915 38.9343 65.8009C39.0614 65.6104 39.1884 65.4833 39.2519 65.4833C39.4424 65.4198 39.5695 65.3563 39.6965 65.2928C39.8235 65.2293 39.9506 65.1658 40.0776 65.1658C40.2046 65.1658 40.2681 65.1658 40.3952 65.2293C40.4587 65.2928 40.5222 65.4198 40.5222 65.5469V65.6104V65.6739C40.5222 65.8009 40.4587 65.8644 40.3952 65.9279C40.3316 65.9915 40.2681 65.9915 40.2681 65.9915C40.2046 65.9915 40.1411 65.9279 40.1411 65.8644C40.1411 65.8009 40.1411 65.7374 40.2046 65.6739C40.2046 65.6104 40.2681 65.5469 40.2681 65.4833C40.2681 65.4198 40.2046 65.3563 40.1411 65.3563C40.0776 65.3563 40.0141 65.3563 39.9506 65.4198C39.887 65.4833 39.76 65.5469 39.6965 65.6104C39.633 65.6739 39.5695 65.7374 39.506 65.7374C39.4424 65.8009 39.3789 65.8644 39.3154 66.055C39.2519 66.2455 39.1249 66.4361 39.0614 66.6266C38.9978 66.8807 38.8708 67.0712 38.8073 67.3253C38.7438 67.5793 38.6803 67.7699 38.6803 67.8969C38.6803 68.0874 38.7438 68.2145 38.9343 68.2145C39.1249 68.2145 39.3154 68.151 39.4424 68.0874C39.5695 67.9604 39.76 67.8969 39.887 67.7064C40.0141 67.5793 40.1411 67.4523 40.2046 67.3253C40.2681 67.1982 40.3316 67.1982 40.3316 67.1347L40.3952 67.1982C40.3952 67.2618 40.3317 67.3253 40.2681 67.4523C40.2046 67.5793 40.0776 67.7064 39.9506 67.8334C39.8235 67.9604 39.633 68.0874 39.4424 68.2145C39.2519 68.3415 38.8073 68.4685 38.6168 68.4685Z" fill="black"/>
<path d="M40.3317 68.4686C40.2046 68.4686 40.1411 68.3415 40.1411 68.151C40.1411 67.9604 40.2046 67.7699 40.2681 67.5158C40.3317 67.2618 40.3952 67.0077 40.5222 66.7537C40.6492 66.4996 40.7127 66.2456 40.8398 65.9915C40.9668 65.7374 41.0938 65.5469 41.2209 65.4199C41.3479 65.2928 41.4749 65.2293 41.6019 65.2293L41.729 65.1658C41.729 65.1023 41.7925 65.1023 41.856 65.1023C41.9195 65.1023 41.9195 65.1023 41.983 65.1023C42.1101 65.1023 42.2371 65.1023 42.3641 65.1658C42.4911 65.2293 42.5547 65.2293 42.6182 65.2293C42.6817 65.2293 42.6817 65.2293 42.6817 65.1658C42.6817 65.1023 42.7452 65.1023 42.8087 65.1023C42.8722 65.1023 42.9357 65.1023 42.9993 65.1658C43.0628 65.2293 43.0628 65.2293 43.0628 65.2928C43.0628 65.3564 43.0628 65.4834 42.9993 65.5469C42.9357 65.6739 42.9357 65.7374 42.8722 65.801L42.8087 65.8645C42.7452 65.8645 42.7452 65.928 42.7452 65.928C42.6817 66.182 42.5547 66.4996 42.4911 66.7537C42.4276 67.0077 42.3641 67.2618 42.3006 67.4523C42.2371 67.6429 42.2371 67.7699 42.2371 67.8334C42.2371 67.9604 42.3006 68.024 42.3641 68.024C42.4276 68.024 42.4911 68.024 42.6182 67.9604C42.6817 67.8969 42.8087 67.8334 42.8722 67.7699C42.9357 67.7064 42.9993 67.6429 43.0628 67.5794C43.1263 67.5158 43.1263 67.5158 43.1263 67.5158C43.1263 67.5158 43.1263 67.5158 43.1263 67.5794C43.1263 67.5794 43.1263 67.6429 43.1263 67.7064C43.1263 67.7699 43.0628 67.7699 43.0628 67.8334C42.9993 67.8969 42.9358 67.9604 42.8087 68.0875C42.6817 68.2145 42.5547 68.278 42.4276 68.405C42.3006 68.4686 42.1736 68.5321 42.0465 68.5321C41.9195 68.5321 41.856 68.4686 41.856 68.3415C41.856 68.2145 41.856 68.0875 41.9195 67.9604C41.983 67.7699 41.983 67.6429 42.0465 67.4523C42.1101 67.2618 42.1101 67.1348 42.1736 67.0077C42.1101 67.1348 41.983 67.2618 41.856 67.4523C41.729 67.6429 41.5384 67.8334 41.4114 68.024C41.2209 68.2145 41.0938 68.3415 40.9033 68.4686C40.5857 68.405 40.4587 68.4686 40.3317 68.4686ZM40.6492 68.024C40.7127 68.024 40.7763 67.9604 40.9033 67.8969C41.0303 67.8334 41.0938 67.7064 41.2209 67.5794C41.3479 67.4523 41.4114 67.3253 41.5384 67.1983C41.6655 67.0712 41.729 66.9442 41.7925 66.8807C41.856 66.7537 41.9195 66.7537 41.9195 66.6902C41.983 66.5631 42.1101 66.3726 42.1736 66.182C42.2371 65.9915 42.3641 65.8645 42.4276 65.6739C42.4911 65.4834 42.4911 65.4199 42.4911 65.3564C42.4911 65.2928 42.4911 65.2928 42.4276 65.2928C42.3641 65.2928 42.3006 65.2928 42.2371 65.2928C42.1736 65.2928 42.1101 65.2928 42.0465 65.2928C41.983 65.2928 41.856 65.2928 41.7925 65.3564C41.729 65.3564 41.6655 65.4199 41.5384 65.5469C41.4114 65.6739 41.3479 65.8645 41.2209 66.055C41.0938 66.2456 41.0303 66.4361 40.9033 66.6902C40.7763 66.9442 40.7127 67.1348 40.6492 67.3253C40.5857 67.5158 40.5222 67.7064 40.5222 67.8334C40.5222 67.9604 40.5857 68.024 40.6492 68.024Z" fill="black"/>
<path d="M43.2533 68.5957C43.1898 68.5957 43.1898 68.5957 43.1263 68.5322C43.0627 68.4686 43.0627 68.4686 43.0627 68.4051C43.0627 68.3416 43.1263 68.2781 43.1898 68.2781C43.2533 68.2781 43.3803 68.2781 43.5073 68.2146C43.6344 68.2146 43.8249 68.1511 43.9519 68.0875C44.079 68.024 44.2695 67.9605 44.333 67.897C44.4601 67.8335 44.5236 67.77 44.5236 67.6429C44.5236 67.5794 44.4601 67.5159 44.3965 67.3889C44.333 67.3254 44.206 67.1983 44.079 67.1348C43.9519 67.0713 43.8249 66.9443 43.6979 66.8808C43.5709 66.8173 43.4438 66.6902 43.3803 66.6267C43.3168 66.5632 43.2533 66.4362 43.2533 66.3091C43.2533 66.2456 43.2533 66.2456 43.2533 66.1821C43.2533 66.1186 43.3168 66.1186 43.3168 66.0551C43.5073 65.801 43.6979 65.674 43.8884 65.4835C44.079 65.3564 44.2695 65.2294 44.4601 65.1659C44.6506 65.1024 44.7776 65.0389 44.9047 64.9753C44.9047 64.9753 44.9682 64.9753 45.0317 64.9753C45.0952 64.9753 45.0952 64.9753 45.1587 64.9753C45.2222 64.9753 45.2857 64.9753 45.3493 65.0389C45.4128 65.1024 45.4763 65.1659 45.4763 65.2929C45.4763 65.3564 45.4763 65.4199 45.4128 65.547C45.3493 65.6105 45.3493 65.7375 45.2858 65.801C45.2222 65.8645 45.1587 65.9916 45.0952 66.0551C45.0317 66.1186 44.9682 66.1186 44.9682 66.1186C44.9682 66.1186 44.9047 66.1186 44.9047 66.0551C44.9047 65.9916 44.9047 65.9281 44.9682 65.8645C45.0317 65.801 45.0317 65.674 45.0952 65.6105C45.1587 65.547 45.1587 65.4835 45.1587 65.4199C45.1587 65.3564 45.0952 65.2929 45.0317 65.2929C44.9682 65.2929 44.9682 65.2929 44.9047 65.2929C44.8411 65.2929 44.7776 65.2929 44.7776 65.2929C44.7141 65.2929 44.6506 65.2929 44.5871 65.3564C44.4601 65.4199 44.3965 65.4835 44.2695 65.547C44.1425 65.6105 44.079 65.674 43.9519 65.801C43.8884 65.8645 43.8249 65.9916 43.8249 66.1186C43.8249 66.1821 43.8249 66.2456 43.8884 66.3091C43.9519 66.4362 44.079 66.5632 44.206 66.6267C44.333 66.6902 44.4601 66.7537 44.5871 66.8173C44.7141 66.8808 44.8411 66.9443 44.9047 67.0078C44.9682 67.0713 45.0317 67.1983 45.0317 67.3254C45.0317 67.4524 44.9682 67.5794 44.8411 67.7065C44.7141 67.8335 44.5871 67.9605 44.3965 68.0875C44.206 68.2146 44.0155 68.2781 43.8884 68.3416C43.5073 68.5321 43.3803 68.5957 43.2533 68.5957Z" fill="black"/>
<path d="M46.683 68.9768C46.6195 68.9768 46.556 68.9132 46.556 68.8497C46.556 68.7862 46.6195 68.7227 46.683 68.6592C46.7465 68.5957 46.81 68.5321 46.8735 68.4051C46.8735 68.3416 46.9371 68.2146 47.0006 68.0875C47.0641 67.897 47.1276 67.7065 47.1911 67.4524C47.2546 67.1983 47.3181 67.0078 47.3817 66.8173C47.4452 66.6267 47.5087 66.4362 47.5087 66.3091C47.4452 66.4362 47.3181 66.5632 47.1911 66.6902C47.0641 66.8808 46.9371 67.0713 46.7465 67.2619C46.556 67.4524 46.4289 67.6429 46.2384 67.8335C46.0479 68.024 45.9208 68.1511 45.7303 68.2781C45.6033 68.4051 45.4762 68.4686 45.3492 68.4686C45.2857 68.4686 45.2222 68.4051 45.2222 68.3416C45.2222 68.2781 45.2857 68.1511 45.3492 67.9605C45.4127 67.897 45.4127 67.77 45.5397 67.5794C45.6033 67.4524 45.6668 67.2619 45.7938 67.0713C45.8573 66.8808 45.9208 66.6902 45.9843 66.5632C46.0479 66.3727 46.0479 66.3091 46.0479 66.1821C46.0479 66.1186 46.0479 66.1186 46.0479 66.1186V66.0551C46.0479 66.0551 46.0479 66.0551 46.0479 65.9916V65.9281C46.1114 65.674 46.1749 65.4835 46.2384 65.3564C46.3019 65.2294 46.3654 65.1024 46.4289 65.1024C46.4925 65.0389 46.6195 65.0389 46.7465 65.0389C46.81 65.0389 46.8735 65.0389 46.8735 65.1024C46.8735 65.1659 46.81 65.2929 46.7465 65.4835C46.683 65.674 46.556 65.8645 46.4925 66.1186C46.3654 66.3727 46.3019 66.6267 46.1749 66.8808C46.0479 67.1348 45.9843 67.3254 45.9208 67.5159C45.8573 67.7065 45.7938 67.8335 45.7938 67.8335V67.897C45.7938 67.897 45.8573 67.897 45.8573 67.8335C45.9208 67.8335 45.9208 67.77 45.9843 67.7065C46.3019 67.4524 46.6195 67.1348 46.8735 66.8173C47.1276 66.4997 47.3181 66.1821 47.5087 65.801C47.5087 65.7375 47.5087 65.6105 47.5722 65.4835C47.6357 65.3564 47.6992 65.2294 47.7627 65.1024C47.8263 64.9753 47.9533 64.9753 48.1438 64.9753C48.2074 64.9753 48.2709 64.9753 48.2709 65.0389C48.2709 65.1024 48.2073 65.2929 48.0803 65.547C48.0168 65.801 47.8898 66.0551 47.8263 66.3091C47.7628 66.4362 47.6992 66.6267 47.6992 66.8173C47.6992 67.0078 47.5722 67.1983 47.5087 67.3889C47.4452 67.5794 47.3817 67.77 47.3817 67.897C47.3181 68.024 47.3181 68.1511 47.3181 68.2146C47.3817 68.2146 47.4452 68.1511 47.5087 68.0875C47.5722 68.024 47.6992 67.9605 47.7627 67.897C47.8898 67.8335 47.9533 67.77 48.0168 67.77C48.0168 67.77 48.0168 67.77 48.0803 67.77C48.0803 67.77 48.0803 67.77 48.0803 67.8335C48.0803 67.897 48.0168 67.897 47.9533 67.9605C47.8898 68.024 47.7627 68.0876 47.6357 68.1511C47.5087 68.2146 47.4452 68.2781 47.3181 68.3416C47.1911 68.4051 47.1276 68.4686 47.1276 68.4686C47.0641 68.5322 47.0006 68.5957 46.9371 68.6592C46.8735 68.7227 46.81 68.7862 46.7465 68.8497C46.81 68.9768 46.7465 68.9768 46.683 68.9768Z" fill="black"/>
<path d="M48.3981 68.4686C48.271 68.4686 48.2075 68.3415 48.2075 68.151C48.2075 67.9604 48.271 67.7699 48.3345 67.5158C48.3981 67.2618 48.4616 67.0077 48.5886 66.7537C48.7156 66.4996 48.7791 66.2456 48.9062 65.9915C49.0332 65.7374 49.1602 65.5469 49.2873 65.4199C49.4143 65.2928 49.5413 65.2293 49.6683 65.2293L49.7954 65.1658C49.7954 65.1023 49.8589 65.1023 49.9224 65.1023C49.9859 65.1023 49.9859 65.1023 50.0494 65.1023C50.1765 65.1023 50.3035 65.1023 50.4305 65.1658C50.5576 65.2293 50.6211 65.2293 50.6846 65.2293C50.7481 65.2293 50.7481 65.2293 50.7481 65.1658C50.7481 65.1023 50.8116 65.1023 50.8751 65.1023C50.9386 65.1023 51.0022 65.1023 51.0657 65.1658C51.1292 65.2293 51.1292 65.2293 51.1292 65.2928C51.1292 65.3564 51.1292 65.4834 51.0657 65.5469C51.0022 65.6739 51.0022 65.7374 50.9386 65.801L50.8751 65.8645C50.8116 65.8645 50.8116 65.928 50.8116 65.928C50.7481 66.182 50.6211 66.4996 50.5576 66.7537C50.494 67.0077 50.4305 67.2618 50.367 67.4523C50.3035 67.6429 50.3035 67.7699 50.3035 67.8334C50.3035 67.9604 50.367 68.024 50.4305 68.024C50.494 68.024 50.5576 68.024 50.6846 67.9604C50.7481 67.8969 50.8751 67.8334 50.9386 67.7699C51.0022 67.7064 51.0657 67.6429 51.1292 67.5794C51.1927 67.5158 51.1927 67.5158 51.1927 67.5158C51.1927 67.5158 51.1927 67.5158 51.1927 67.5794C51.1927 67.5794 51.1927 67.6429 51.1927 67.7064C51.1927 67.7699 51.1292 67.7699 51.1292 67.8334C51.0657 67.8969 51.0022 67.9604 50.8751 68.0875C50.7481 68.2145 50.6211 68.278 50.494 68.405C50.367 68.4686 50.24 68.5321 50.113 68.5321C49.9859 68.5321 49.9224 68.4686 49.9224 68.3415C49.9224 68.2145 49.9224 68.0875 49.9859 67.9604C50.0494 67.7699 50.0494 67.6429 50.113 67.4523C50.1765 67.2618 50.1765 67.1348 50.24 67.0077C50.1765 67.1348 50.0494 67.2618 49.9224 67.4523C49.7954 67.6429 49.6048 67.8334 49.4778 68.024C49.2873 68.2145 49.1602 68.3415 48.9697 68.4686C48.6521 68.405 48.5251 68.4686 48.3981 68.4686ZM48.6521 68.024C48.7156 68.024 48.7791 67.9604 48.9062 67.8969C49.0332 67.8334 49.0967 67.7064 49.2237 67.5794C49.3508 67.4523 49.4143 67.3253 49.5413 67.1983C49.6684 67.0712 49.7319 66.9442 49.7954 66.8807C49.8589 66.7537 49.9224 66.7537 49.9224 66.6902C49.9859 66.5631 50.113 66.3726 50.1765 66.182C50.24 65.9915 50.367 65.8645 50.4305 65.6739C50.494 65.4834 50.494 65.4199 50.494 65.3564C50.494 65.2928 50.494 65.2928 50.4305 65.2928C50.367 65.2928 50.3035 65.2928 50.24 65.2928C50.1765 65.2928 50.113 65.2928 50.0494 65.2928C49.9859 65.2928 49.8589 65.2928 49.7954 65.3564C49.7319 65.3564 49.6684 65.4199 49.5413 65.5469C49.4143 65.6739 49.3508 65.8645 49.2237 66.055C49.0967 66.2456 49.0332 66.4361 48.9062 66.6902C48.7791 66.9442 48.7156 67.1348 48.6521 67.3253C48.5886 67.5158 48.5251 67.7064 48.5251 67.8334C48.5886 67.9604 48.5886 68.024 48.6521 68.024Z" fill="black"/>
<path d="M51.3197 68.4686C51.1927 68.4686 51.1292 68.4051 51.1292 68.3416C51.1292 68.278 51.1291 68.2145 51.1927 68.151C51.3832 67.7064 51.5102 67.2618 51.6373 66.8172C51.7643 66.3726 51.8913 65.9915 52.0184 65.5469C52.1454 65.1023 52.2724 64.6577 52.3994 64.2131C52.3994 64.1496 52.3994 64.1496 52.3994 64.0861V64.0226V63.9591V63.8955C52.3994 63.8955 52.3994 63.832 52.3994 63.7685C52.5265 63.3874 52.6535 63.1334 52.717 63.0063C52.844 62.8793 52.9711 62.8158 53.1616 62.8158C53.2251 62.8158 53.2886 62.8158 53.2886 62.8793C53.1616 63.1969 52.9711 63.578 52.7805 64.0226C52.59 64.4672 52.463 64.8483 52.2724 65.2929C52.1454 65.7375 51.9548 66.1821 51.8278 66.6267C51.7008 67.0713 51.5738 67.4524 51.5102 67.8334V67.897C51.5102 67.9605 51.5102 68.024 51.5737 68.024C51.6373 68.024 51.7008 68.024 51.7643 67.9605C51.8278 67.897 51.8913 67.897 52.0184 67.8334C52.0819 67.7699 52.1454 67.7699 52.2089 67.7699C52.2724 67.7699 52.2724 67.7699 52.2724 67.8334C52.2724 67.897 52.2089 67.897 52.1454 68.024C52.0819 68.151 51.9548 68.151 51.8278 68.278C51.7008 68.3416 51.5738 68.4051 51.4467 68.4686C51.3197 68.5321 51.3832 68.4686 51.3197 68.4686Z" fill="black"/>
</svg>
